<?xml version="1.0" encoding="utf-8"?>
<!-- Generator: Adobe Illustrator 23.0.4, SVG Export Plug-In . SVG Version: 6.00 Build 0)  -->
<svg version="1.1" id="Calque_1" xmlns="http://www.w3.org/2000/svg" xmlns:xlink="http://www.w3.org/1999/xlink" x="0px" y="0px"
	 viewBox="0 0 200 200" style="enable-background:new 0 0 200 200;" xml:space="preserve">
<style type="text/css">
	.st0{fill:#838B90;}
	.st1{fill:#FFFFFF;}
</style>
<g>
	<path class="st0" d="M199.9,100c0,22.2,0,44.5,0,66.7c0,4.1-0.7,8-2.1,11.8c-1.3,3.5-3.2,6.7-5.7,9.6c-3,3.6-6.7,6.5-10.9,8.5
		c-3.3,1.6-6.7,2.6-10.4,3.1c-1.5,0.2-3,0.3-4.5,0.3c-44.6,0-89.2,0-133.7,0c-3,0-5.8-0.5-8.7-1.3c-4.3-1.3-8.3-3.3-11.8-6.2
		c-4.2-3.5-7.4-7.7-9.6-12.8c-1.3-3.1-2.2-6.2-2.5-9.6c-0.1-0.8-0.1-1.5-0.1-2.3c0-45,0-90.1,0-135.1c0-2.9,0.5-5.8,1.3-8.6
		c1.4-4.7,3.7-8.9,6.9-12.7c3-3.4,6.5-6.1,10.6-8.1c3.3-1.6,6.7-2.6,10.3-3.1C30.5,0.1,31.9,0,33.3,0c44.7,0,89.3,0,134,0
		c3,0,5.9,0.5,8.9,1.3c4.3,1.3,8.2,3.3,11.6,6.1c4.2,3.5,7.5,7.7,9.6,12.8c1.3,3,2.1,6.2,2.5,9.5c0.1,0.7,0.1,1.5,0.1,2.2
		C199.9,54.7,199.9,77.3,199.9,100z"/>
	<path class="st1" d="M130.2,58.3c4-2.4,6.3-6,8.1-10.1c1.1-2.4,1.8-5,2.2-7.7c0.4-3,0.4-5.9-0.6-8.8c-1.3-4.1-4.1-6.8-8.4-7.9
		c-4.6-1.2-9.1-0.6-13.3,1.7c-3.7,2-6.8,4.8-9.6,8c-4,4.5-7.1,9.5-9.9,14.8c-4.4,8.4-7.9,17.1-10.7,26.1c-1.5,4.8-2.8,9.6-3.9,14.6
		c-1,4.2-1.8,8.4-2.5,12.7c-0.5,2.7-0.8,5.5-1.2,8.2c-0.3,2.4-0.5,4.7-0.7,7.1c-0.4,5.2-0.7,10.4-0.6,15.6c0.1,4.9,0.5,9.7,1.7,14.4
		c0.8,3.1,1.9,6,3.6,8.7c2.9,4.7,7.2,7.6,12.4,9.1c2.3,0.7,4.6,1,7,1.1c11.4,0.6,22-2.2,31.6-8.2c6-3.7,11.1-8.4,15.4-14
		c0.6-0.7,0.5-0.6,1.1-0.3c1.4,0.6,2.7,1.2,4.1,1.8c0.5,0.2,0.5,0.2,0.3,0.8c-2.2,5.3-5,10.2-8.5,14.8c-4.4,5.7-9.6,10.4-15.6,14.4
		c-5.3,3.6-11,6.3-17,8.5c-4.2,1.5-8.5,2.6-12.8,3.4c-2.4,0.4-4.8,0.7-7.2,0.9c-2.6,0.2-5.2,0.2-7.7,0.1c-6.2-0.2-12.4-1-18.3-2.9
		c-4.3-1.4-8.4-3.4-12-6.3c-3.6-2.8-6.4-6.3-8.7-10.2c-2.5-4.5-4.2-9.4-5.3-14.4c-0.7-3.2-1.2-6.4-1.5-9.7c-0.2-1.8-0.3-3.6-0.4-5.4
		c-0.2-4.3-0.2-8.6-0.1-12.9c0.1-2.7,0.3-5.4,0.5-8.1c0.2-2.2,0.4-4.4,0.7-6.6c0.3-2.6,0.8-5.3,1.2-7.9c0.9-5.5,2.1-10.9,3.5-16.3
		c2.5-9.6,5.8-19,10.1-28c3.4-7.1,7.4-13.8,12.3-20.1c5-6.3,10.7-11.9,17.4-16.4c6.6-4.4,13.9-7.4,21.7-9c2.6-0.5,5.3-0.8,8-1
		c2.6-0.2,5.2-0.2,7.7-0.1c5.7,0.2,11.2,1.1,16.6,3.1c4.1,1.6,7.8,3.7,10.9,6.9c3,3,5,6.6,6.2,10.7c0.8,2.9,1.2,5.8,1.3,8.8
		c0.1,3.2-0.1,6.5-0.8,9.6c-0.6,2.5-1.5,4.8-3,6.9c-1.9,2.6-4.4,4.3-7.5,5.1c-3.6,0.9-7.1,0.8-10.6-0.4
		C134.5,62.4,132.1,60.6,130.2,58.3z"/>
</g>
</svg>
